<?xml version="1.0" standalone="no"?><!DOCTYPE svg PUBLIC "-//W3C//DTD SVG 1.1//EN" "http://www.w3.org/Graphics/SVG/1.1/DTD/svg11.dtd"><svg t="1615188973422" class="icon" viewBox="0 0 1024 1024" version="1.1" xmlns="http://www.w3.org/2000/svg" p-id="3778" xmlns:xlink="http://www.w3.org/1999/xlink" width="200" height="200"><defs><style type="text/css"></style></defs><path d="M511.244 956.519c-246.611 0.001-446.803-200.19-446.802-446.801 0.001-246.365 200.435-446.799 446.8-446.799 99.783 0 195.847 33.12 274.033 93.891 14.701 11.426 16.528 32.972 4.011 46.755l-84.249 92.775c-10.922 12.027-29.18 14.04-42.327 4.496-43.872-31.848-96.699-49.129-151.468-49.129-142.267 0-258.011 115.743-258.011 258.011 0 142.549 116.584 258.619 259.132 258.01 108.485-0.464 201.386-68.227 239.014-163.615H543.242c-17.673 0-32-14.327-32-32V447.324c0-17.673 14.327-32 32-32h382.8c17.673 0 32 14.327 32 32v62.394c0.001 246.366-200.433 446.801-446.798 446.801z" p-id="3779"></path></svg>